<?xml version="1.0" standalone="no"?>
<!DOCTYPE svg PUBLIC "-//W3C//DTD SVG 1.1//EN" "http://www.w3.org/Graphics/SVG/1.1/DTD/svg11.dtd">
<!--Generator: Xara Designer (www.xara.com), SVG filter version: 6.0.0.4-->
<svg stroke-width="0.501" stroke-linejoin="bevel" fill-rule="evenodd" xmlns:xlink="http://www.w3.org/1999/xlink" xmlns="http://www.w3.org/2000/svg" version="1.1" overflow="visible" width="595.277pt" height="841.891pt" viewBox="0 0 595.277 841.891">
 <defs>
	</defs>
 <g id="Document" fill="none" stroke="black" font-family="Times New Roman" font-size="16" transform="scale(1 -1)">
  <g id="Spread" transform="translate(0 -841.891)">
   <g id="Layer 1">
    <g id="Group" stroke-linejoin="miter" stroke="none">
     <path d="M 180.46,470.484 C 147.534,503.41 131.07,546.595 131.07,589.784 L 168.347,589.784 C 168.347,556.139 181.171,522.494 206.821,496.845 C 232.527,471.139 266.258,458.315 299.971,458.37 L 299.971,421.093 C 256.713,421.041 213.44,437.503 180.46,470.484 Z" fill="#fe982b" marker-start="none" marker-end="none"/>
     <path d="M 299.971,421.093 L 299.971,458.37 C 329.313,458.417 358.649,468.221 382.662,487.785 L 423.3,474.952 L 423.349,474.936 C 421.95,473.433 420.517,471.947 419.055,470.484 C 386.182,437.612 343.085,421.147 299.971,421.093 Z M 427.689,479.869 L 411.766,520.972 C 424.646,541.915 431.112,565.699 431.163,589.496 L 468.439,589.496 C 468.373,550.371 454.797,511.265 427.712,479.809 L 427.689,479.869 Z" fill="#c36a69" marker-start="none" marker-end="none"/>
     <g id="Group_1">
      <path d="M 392.694,681.953 C 366.555,708.087 332.117,720.907 297.841,720.415 L 297.842,720.335 L 297.841,720.412 L 297.841,757.691 C 341.665,758.184 385.642,741.724 419.055,708.314 C 451.978,675.388 468.439,632.206 468.442,589.022 L 431.165,589.022 C 431.165,622.664 418.341,656.304 392.694,681.953 Z" fill="#00a8de" marker-start="none" marker-end="none"/>
      <path d="M 180.46,708.314 C 212.899,740.753 255.297,757.213 297.841,757.691 L 297.842,720.335 L 297.841,720.415 C 264.839,719.936 231.984,707.116 206.821,681.953 C 181.171,656.304 168.347,622.659 168.347,589.019 L 131.07,589.019 C 131.07,632.201 147.534,675.388 180.46,708.314 Z" fill="#6cab36" marker-start="none" marker-end="none"/>
     </g>
     <path d="M 282.169,599.723 C 291.349,608.902 306.254,608.902 315.433,599.723 C 324.613,590.544 324.613,575.639 315.433,566.459 C 306.254,557.28 291.349,557.28 282.169,566.459 C 272.99,575.639 272.99,590.544 282.169,599.723 Z" fill="#fe982b" marker-start="none" marker-end="none"/>
    </g>
    <g id="Group_2" fill="#c36a69" fill-rule="nonzero" stroke-linejoin="round" stroke-linecap="round" stroke="none" stroke-width="0.25" stroke-miterlimit="79.8403193612775">
     <g id="Group_3">
      <path d="M 178.936,364.36 C 180.489,366.359 181.641,368.717 182.389,371.434 C 183.138,374.15 183.516,377.346 183.516,381.019 C 183.516,384.955 183.083,388.303 182.224,391.066 C 181.365,393.826 180.241,396.061 178.851,397.763 C 177.437,399.527 175.807,400.805 173.961,401.597 C 172.116,402.39 170.194,402.788 168.194,402.788 C 166.167,402.788 164.261,402.404 162.469,401.643 C 160.68,400.878 159.037,399.615 157.535,397.852 C 156.148,396.206 155.017,393.938 154.143,391.043 C 153.268,388.148 152.833,384.793 152.831,380.973 C 152.833,377.066 153.254,373.74 154.101,370.993 C 154.948,368.248 156.065,366.008 157.453,364.274 C 158.84,362.539 160.463,361.262 162.324,360.439 C 164.184,359.618 166.142,359.206 168.194,359.206 C 170.247,359.206 172.205,359.623 174.063,360.461 C 175.923,361.3 177.546,362.6 178.936,364.36 Z M 180.641,348.983 C 180.753,346.074 181.505,343.99 182.892,342.726 C 184.277,341.462 186.654,340.829 190.009,340.829 C 191.146,340.829 192.495,341.036 194.049,341.446 C 195.601,341.86 196.684,342.226 197.297,342.55 L 198.876,342.55 L 198.876,330.915 C 197.324,330.533 195.64,330.196 193.82,329.9 C 192.002,329.607 189.22,329.463 185.473,329.463 C 182.167,329.463 179.29,329.893 176.833,330.762 C 174.376,331.626 172.329,332.854 170.693,334.441 C 169.08,335.997 167.875,337.835 167.071,339.95 C 166.266,342.065 165.792,344.416 165.655,347 C 156.386,347.558 149.161,350.84 143.983,356.848 C 138.81,362.854 136.22,370.898 136.22,380.973 C 136.22,391.522 139.052,399.857 144.712,405.981 C 150.376,412.108 158.187,415.17 168.153,415.17 C 178.087,415.17 185.901,412.108 191.59,405.981 C 197.284,399.857 200.128,391.522 200.128,380.973 C 200.128,373.189 198.462,366.469 195.13,360.814 C 191.801,355.158 186.969,351.215 180.641,348.983 Z" marker-start="none" marker-end="none"/>
      <path d="M 263.496,393.091 C 263.496,390.153 263.009,387.284 262.035,384.478 C 261.064,381.671 259.674,379.316 257.87,377.405 C 255.403,374.821 252.649,372.866 249.607,371.546 C 246.57,370.223 242.785,369.56 238.263,369.56 L 228.311,369.56 L 228.311,348.19 L 212.326,348.19 L 212.326,413.804 L 238.638,413.804 C 242.579,413.802 245.902,413.444 248.608,412.725 C 251.315,412.006 253.709,410.924 255.791,409.485 C 258.289,407.751 260.195,405.535 261.514,402.83 C 262.835,400.128 263.496,396.882 263.496,393.091 Z M 246.965,392.696 C 246.965,394.548 246.491,396.14 245.548,397.479 C 244.604,398.813 243.508,399.746 242.257,400.277 C 240.593,400.983 238.97,401.37 237.389,401.445 C 235.806,401.518 233.699,401.554 231.058,401.554 L 228.311,401.554 L 228.311,381.9 L 232.891,381.9 C 235.612,381.9 237.853,382.077 239.616,382.428 C 241.38,382.781 242.856,383.486 244.049,384.544 C 245.075,385.484 245.82,386.608 246.277,387.916 C 246.735,389.22 246.965,390.815 246.965,392.696 Z" marker-start="none" marker-end="none"/>
      <path d="M 302.295,361.101 L 302.295,371.41 C 300.27,371.237 298.077,370.993 295.718,370.684 C 293.36,370.375 291.571,370.016 290.347,369.606 C 288.85,369.105 287.702,368.377 286.915,367.425 C 286.122,366.469 285.727,365.212 285.727,363.657 C 285.727,362.628 285.811,361.789 285.976,361.145 C 286.142,360.497 286.56,359.881 287.223,359.295 C 287.865,358.706 288.627,358.272 289.515,357.994 C 290.404,357.714 291.792,357.574 293.676,357.574 C 295.177,357.574 296.696,357.898 298.239,358.545 C 299.777,359.19 301.13,360.044 302.295,361.101 Z M 302.295,353.433 C 301.49,352.787 300.491,352.007 299.299,351.097 C 298.106,350.186 296.982,349.467 295.926,348.939 C 294.456,348.233 292.93,347.711 291.346,347.374 C 289.764,347.035 288.03,346.867 286.142,346.867 C 281.699,346.867 277.981,348.322 274.984,351.23 C 271.987,354.139 270.489,357.854 270.489,362.378 C 270.489,365.992 271.253,368.946 272.78,371.237 C 274.306,373.529 276.47,375.333 279.274,376.655 C 282.049,377.976 285.49,378.917 289.598,379.477 C 293.707,380.035 297.966,380.445 302.38,380.71 L 302.38,380.973 C 302.38,383.708 301.324,385.594 299.214,386.636 C 297.107,387.681 293.997,388.201 289.888,388.201 C 287.419,388.201 284.782,387.737 281.98,386.812 C 279.174,385.887 277.163,385.175 275.942,384.676 L 274.569,384.676 L 274.569,396.62 C 276.149,397.057 278.723,397.581 282.291,398.182 C 285.859,398.784 289.433,399.084 293.013,399.084 C 301.534,399.084 307.689,397.697 311.476,394.921 C 315.264,392.146 317.159,387.791 317.159,381.855 L 317.159,348.19 L 302.295,348.19 L 302.295,353.433 Z" marker-start="none" marker-end="none"/>
      <path d="M 377.901,348.19 L 362.831,348.19 L 362.831,372.733 C 362.834,374.732 362.735,376.722 362.538,378.705 C 362.347,380.687 362.01,382.151 361.539,383.091 C 360.983,384.176 360.176,384.969 359.104,385.468 C 358.037,385.968 356.546,386.219 354.629,386.219 C 353.269,386.219 351.889,385.984 350.488,385.512 C 349.087,385.044 347.567,384.294 345.928,383.265 L 345.928,348.19 L 330.94,348.19 L 330.94,397.674 L 345.928,397.674 L 345.928,392.21 C 348.592,394.415 351.15,396.105 353.607,397.279 C 356.064,398.454 358.792,399.04 361.791,399.04 C 366.842,399.04 370.791,397.483 373.634,394.371 C 376.482,391.257 377.901,386.601 377.901,380.402 L 377.901,348.19 Z" marker-start="none" marker-end="none"/>
      <path d="M 437.728,370.002 L 403.424,370.002 C 403.645,366.125 405.039,363.157 407.609,361.101 C 410.175,359.044 413.955,358.016 418.953,358.016 C 422.116,358.016 425.184,358.618 428.154,359.821 C 431.121,361.027 433.467,362.319 435.188,363.701 L 436.854,363.701 L 436.854,350.966 C 433.47,349.525 430.277,348.483 427.279,347.838 C 424.281,347.191 420.965,346.867 417.329,346.867 C 407.947,346.867 400.76,349.099 395.764,353.564 C 390.767,358.03 388.267,364.392 388.267,372.647 C 388.267,380.812 390.635,387.284 395.368,392.057 C 400.101,396.831 406.587,399.218 414.828,399.218 C 422.436,399.218 428.154,397.183 431.983,393.115 C 435.812,389.045 437.728,383.19 437.728,375.554 L 437.728,370.002 Z M 422.823,379.299 C 422.74,382.619 421.964,385.117 420.491,386.792 C 419.021,388.466 416.732,389.303 413.623,389.303 C 410.735,389.303 408.363,388.51 406.502,386.922 C 404.644,385.337 403.605,382.795 403.38,379.299 L 422.823,379.299 Z" marker-start="none" marker-end="none"/>
      <path d="M 463.293,348.19 L 448.305,348.19 L 448.305,416.757 L 463.293,416.757 L 463.293,348.19 Z" marker-start="none" marker-end="none"/>
     </g>
    </g>
   </g>
  </g>
 </g>
</svg>
